Patient4_TMGait_0pt7_01_right_27_GRF.mot
version=1
nRows=58
nColumns=19
inDegrees=no
endheader
time	F1x	F1y	F1z	M1x	M1y	M1z	F2x	F2y	F2z	M2x	M2y	M2z	EC1x	EC1y	EC1z	EC2x	EC2y	EC2z
30.55	-22.538	764.0238	88.6436	-267.4708	-101.0045	838.5246	-13.0387	-6.7716	3.5564	-2.7304	0.45225	0.44991	-0.0592	0.0182	-0.0073	-0.0462	0.0165	0.9585
30.5615	-20.3968	751.7037	82.9037	-263.3659	-93.5365	819.4336	-8.9191	-3.5632	2.4488	-1.48	0.32777	1.4719	-0.0592	0.0182	-0.0073	-0.0462	0.0165	0.9585
30.573	-18.4214	738.8042	77.6724	-258.8638	-86.6031	799.5897	-5.4049	-0.78142	1.4917	-0.39585	0.22615	2.4328	-0.0592	0.0182	-0.0073	-0.0462	0.0165	0.9585
30.5845	-16.6739	726.2172	73.1324	-254.2889	-80.4787	780.1196	-2.6823	1.4031	0.76062	0.45444	0.13656	3.2408	-0.0592	0.0182	-0.0073	-0.0462	0.0165	0.9585
30.596	-15.2272	714.6126	69.4005	-249.9241	-75.3378	761.8236	-0.8098	2.9792	0.24904	1.0641	0.080406	3.8824	-0.0592	0.0182	-0.0073	-0.0462	0.0165	0.9585
30.6075	-14.0357	704.4535	66.3025	-246.0069	-71.032	745.1641	0.35487	3.9871	-0.07082	1.4545	0.050205	4.2989	-0.0592	0.0182	-0.0073	-0.0462	0.0165	0.9585
30.619	-13.06	695.9834	63.7411	-242.7013	-67.4606	730.361	0.93992	4.5313	-0.25187	1.6648	0.059055	4.5181	-0.0592	0.0182	-0.0073	-0.0462	0.0165	0.9585
30.6305	-12.1211	689.3429	61.4677	-240.1324	-64.3234	717.4385	1.1367	4.6642	-0.34675	1.7207	0.10257	4.4776	-0.0592	0.0182	-0.0073	-0.0462	0.0165	0.9585
30.642	-10.996	684.6141	59.3386	-238.3793	-61.3854	706.3712	1.0557	4.4539	-0.39713	1.6471	0.18848	4.1849	-0.0592	0.0182	-0.0073	-0.0462	0.0165	0.9585
30.6535	-9.3672	681.906	57.2131	-237.5052	-58.377	697.1436	0.83855	3.878	-0.45204	1.441	0.32777	3.5277	-0.0592	0.0182	-0.0073	-0.0462	0.0165	0.9585
30.665	-6.9286	681.4258	55.0653	-237.5704	-55.1339	689.8562	0.533	2.9316	-0.52532	1.0982	0.51742	2.4662	-0.0592	0.0182	-0.0073	-0.0462	0.0165	0.9585
30.6765	-3.4178	683.4109	52.9995	-238.6202	-51.6246	684.6685	0.23184	1.5527	-0.64801	0.59784	0.7579	0.89116	-0.0592	0.0182	-0.0073	-0.0462	0.0165	0.9585
30.688	1.2657	688.0996	51.1832	-240.6771	-47.9285	681.8005	-0.035333	-0.25935	-0.80176	-0.063792	1.0173	-1.1923	-0.0592	0.0182	-0.0073	-0.0462	0.0165	0.9585
30.6995	7.0343	695.6378	49.8915	-243.718	-44.2953	681.4532	-0.17541	-2.4829	-0.96507	-0.87642	1.2368	-3.7828	-0.0592	0.0182	-0.0073	-0.0462	0.0165	0.9585
30.711	13.6066	706.0427	49.3401	-247.676	-40.9952	683.7473	-0.12427	-4.9113	-1.0812	-1.7668	1.3225	-6.6274	-0.0592	0.0182	-0.0073	-0.0462	0.0165	0.9585
30.7225	20.5382	719.1273	49.7254	-252.4248	-38.3462	688.6594	0.24334	-7.1909	-1.0736	-2.5978	1.1394	-9.3145	-0.0592	0.0182	-0.0073	-0.0462	0.0165	0.9585
30.734	27.3476	734.4507	51.0787	-257.7713	-36.5415	695.9379	1.0348	-8.6127	-0.82806	-3.1079	0.51398	-10.9862	-0.0592	0.0182	-0.0073	-0.0462	0.0165	0.9585
30.7455	33.5185	751.2714	53.3217	-263.4398	-35.6914	705.0317	2.4096	-8.144	-0.20125	-2.9088	-0.77121	-10.4252	-0.0592	0.0182	-0.0073	-0.0462	0.0165	0.9585
30.757	38.7059	768.48	56.2679	-269.0495	-35.7689	715.0021	4.4471	-4.2917	0.9649	-1.4463	-2.9245	-5.8546	-0.0592	0.0182	-0.0073	-0.0462	0.0165	0.9585
30.7685	42.7476	784.6503	59.6316	-274.1299	-36.5951	724.5779	7.206	4.8108	2.8143	1.9747	-6.1226	4.9202	-0.0592	0.0182	-0.0073	-0.0462	0.0165	0.9585
30.78	45.773	798.164	63.0818	-278.1608	-37.8643	732.2384	10.5213	21.2945	5.449	8.1415	-10.4172	24.4502	-0.0592	0.0182	-0.0073	-0.0462	0.0165	0.9585
30.7915	48.0777	807.3585	66.2254	-280.6206	-39.1502	736.4106	14.0428	47.1943	8.8575	17.7995	-15.6421	55.1448	-0.0592	0.0182	-0.0073	-0.0462	0.0165	0.9585
30.803	50.0896	810.6679	68.6763	-281.0272	-39.9965	735.5793	16.9764	83.837	12.8103	31.421	-21.2174	98.5974	-0.0592	0.0182	-0.0073	-0.0462	0.0165	0.9585
30.8145	52.1429	806.6836	70.0629	-278.9542	-39.9815	728.4039	18.093	130.8483	16.7455	48.8408	-25.9976	154.3683	-0.0592	0.0182	-0.0073	-0.0462	0.0165	0.9585
30.826	54.4351	794.2245	70.0747	-274.049	-38.7873	713.7805	15.6032	184.964	19.5979	68.8069	-28.0742	218.6341	-0.0592	0.0182	-0.0073	-0.0462	0.0165	0.9585
30.8375	56.865	772.3981	68.5162	-266.0459	-36.2936	690.9536	8.2299	239.2871	19.8936	88.7076	-25.2705	283.2492	-0.0592	0.0182	-0.0073	-0.0462	0.0165	0.9585
30.849	59.1837	740.7892	65.3031	-254.8332	-32.5383	659.6293	-2.5654	285.5152	16.142	105.4368	-16.565	338.3563	-0.0592	0.0182	-0.0073	-0.0462	0.0165	0.9585
30.8605	61.0406	699.7435	60.5673	-240.5278	-27.7728	620.2487	-13.6902	319.6056	9.3115	117.5228	-4.2619	378.8492	-0.0592	0.0182	-0.0073	-0.0462	0.0165	0.9585
30.872	62.1073	650.2941	54.6138	-223.4601	-22.3682	573.8526	-23.2901	342.1559	0.8588	125.2288	9.2665	405.1738	-0.0592	0.0182	-0.0073	-0.0462	0.0165	0.9585
30.8835	62.1883	593.9162	47.9722	-204.0959	-16.8333	521.8483	-30.4958	356.76	-8.4659	129.9233	22.7413	421.4684	-0.0592	0.0182	-0.0073	-0.0462	0.0165	0.9585
30.895	61.0909	532.4397	41.0406	-183.0214	-11.5413	465.9434	-35.2095	368.1991	-17.0384	133.4367	34.3749	433.4042	-0.0592	0.0182	-0.0073	-0.0462	0.0165	0.9585
30.9065	58.6999	467.8658	34.2017	-160.8906	-6.8361	407.9216	-37.9085	380.4348	-24.6244	137.277	43.9849	445.7654	-0.0592	0.0182	-0.0073	-0.0462	0.0165	0.9585
30.918	54.9076	402.3841	27.6466	-138.4323	-2.8897	349.7228	-39.1053	396.4652	-30.2542	142.5943	50.7824	462.0059	-0.0592	0.0182	-0.0073	-0.0462	0.0165	0.9585
30.9295	49.7423	338.1688	21.5248	-116.3928	0.19488	293.1734	-39.2906	417.8466	-34.3146	149.951	55.3421	483.9734	-0.0592	0.0182	-0.0073	-0.0462	0.0165	0.9585
30.941	43.3413	277.4394	15.9648	-95.529	2.3805	240.1425	-38.8576	445.2628	-37.013	159.5696	58.116	512.4474	-0.0592	0.0182	-0.0073	-0.0462	0.0165	0.9585
30.9525	36.1316	222.0268	11.092	-76.4794	3.7265	192.0542	-38.0818	478.4456	-39.3246	171.2701	60.2802	547.1515	-0.0592	0.0182	-0.0073	-0.0462	0.0165	0.9585
30.964	28.5786	173.3774	7.0934	-59.736	4.2631	150.0497	-37.1995	516.0997	-41.989	184.5248	62.7476	586.6659	-0.0592	0.0182	-0.0073	-0.0462	0.0165	0.9585
30.9755	21.2779	132.1429	4.0267	-45.5331	4.1553	114.5318	-36.4233	556.2649	-45.5739	198.5717	66.2185	628.7911	-0.0592	0.0182	-0.0073	-0.0462	0.0165	0.9585
30.987	14.6092	98.2852	1.9309	-33.8591	3.503	85.419	-35.9863	596.8566	-50.393	212.6435	71.0908	671.1828	-0.0592	0.0182	-0.0073	-0.0462	0.0165	0.9585
30.9985	8.8816	71.2192	0.66501	-24.5205	2.5142	62.1111	-35.938	636.2346	-56.0336	226.1827	76.9612	711.9663	-0.0592	0.0182	-0.0073	-0.0462	0.0165	0.9585
31.01	4.1544	50.0334	0.080169	-17.2071	1.3249	43.8623	-36.213	673.3949	-62.137	238.8693	83.4	749.9953	-0.0592	0.0182	-0.0073	-0.0462	0.0165	0.9585
31.0215	0.53657	33.792	-0.07398	-11.6028	0.17232	29.8355	-36.6827	707.5717	-67.9429	250.5028	89.5628	784.3441	-0.0592	0.0182	-0.0073	-0.0462	0.0165	0.9585
31.033	-1.991	21.5988	0.0091984	-7.3991	-0.78807	19.3063	-37.155	738.1364	-73.2373	260.8956	95.1219	814.3268	-0.0592	0.0182	-0.0073	-0.0462	0.0165	0.9585
31.0445	-3.3585	12.7035	0.13829	-4.3419	-1.3817	11.5898	-37.4341	764.3308	-77.6453	269.823	99.6186	839.0857	-0.0592	0.0182	-0.0073	-0.0462	0.0165	0.9585
31.056	-3.7544	6.564	0.22267	-2.2393	-1.5953	6.256	-37.4692	785.3476	-81.2043	277.0151	103.045	857.7763	-0.0592	0.0182	-0.0073	-0.0462	0.0165	0.9585
31.0675	-3.4936	2.6836	0.26305	-0.9226	-1.5481	2.8504	-37.1159	800.5386	-83.8361	282.2539	105.2868	869.7375	-0.0592	0.0182	-0.0073	-0.0462	0.0165	0.9585
31.079	-2.9524	0.59138	0.27072	-0.22077	-1.3733	1.0258	-36.4023	809.5357	-85.5995	285.4127	106.4145	874.6458	-0.0592	0.0182	-0.0073	-0.0462	0.0165	0.9585
31.0905	-2.3012	-0.28033	0.27243	0.059773	-1.1563	0.26041	-35.2729	812.5815	-86.5042	286.5801	106.4427	872.7874	-0.0592	0.0182	-0.0073	-0.0462	0.0165	0.9585
31.102	-1.7168	-0.33601	0.24717	0.065955	-0.93294	0.25066	-33.7354	810.5646	-86.5381	286.0715	105.3845	865.1617	-0.0592	0.0182	-0.0073	-0.0462	0.0165	0.9585
31.1135	-1.2066	0.060283	0.22954	-0.078129	-0.74386	0.63843	-31.7789	804.7918	-85.798	284.3513	103.3554	853.1751	-0.0592	0.0182	-0.0073	-0.0462	0.0165	0.9585
31.125	-0.84949	0.67567	0.18928	-0.2926	-0.5821	1.2541	-29.4323	796.8731	-84.3232	281.9751	100.4222	838.5541	-0.0592	0.0182	-0.0073	-0.0462	0.0165	0.9585
31.1365	-0.57713	1.3422	0.16857	-0.52159	-0.4695	1.9111	-26.7077	788.2199	-82.3256	279.428	96.8082	822.8073	-0.0592	0.0182	-0.0073	-0.0462	0.0165	0.9585
31.148	-0.42839	1.9805	0.13745	-0.73745	-0.38689	2.5744	-23.6409	780.0494	-79.9084	277.1159	92.6381	807.2452	-0.0592	0.0182	-0.0073	-0.0462	0.0165	0.9585
31.1595	-0.33477	2.5188	0.12486	-0.92007	-0.34314	3.1266	-20.2446	773.0947	-77.327	275.2717	88.1701	792.6664	-0.0592	0.0182	-0.0073	-0.0462	0.0165	0.9585
31.171	-0.32313	2.9719	0.10909	-1.0716	-0.32208	3.6151	-16.5948	767.6628	-74.7122	273.9798	83.5637	779.4846	-0.0592	0.0182	-0.0073	-0.0462	0.0165	0.9585
31.1825	-0.34453	3.2763	0.1131	-1.1738	-0.32847	3.924	-12.7593	763.6984	-72.2369	273.1921	79.0184	767.7293	-0.0592	0.0182	-0.0073	-0.0462	0.0165	0.9585
31.194	-0.44418	3.459	0.12348	-1.2306	-0.36493	4.0971	-8.8497	760.8796	-69.9997	272.7711	74.6773	757.1904	-0.0592	0.0182	-0.0073	-0.0462	0.0165	0.9585
31.2055	-0.5818	3.4252	0.15115	-1.2163	-0.43115	4.002	-4.9393	758.7135	-68.0572	272.5265	70.6347	747.4712	-0.0592	0.0182	-0.0073	-0.0462	0.0165	0.9585
